# xmcd
#
# Track frame offsets: 
#        150
#        12161
#        25031
#        38239
#        51965
#        66728
#        80248
#        93755
#        106227
#        119033
#        130833
#        144050
#        157160
#        171645
#        187002
#        200332
#        211490
#        226087
#        239396
#        252761
#        266126
#        277773
#        292397
#        304295
#        317851
#
# Disc length: 4407 seconds
#
# Revision: 2
# Processed by: cddbd v1.5.2PL0 Copyright (c) Steve Scherf et al.
# Submitted via: ExactAudioCopyFreeDBPlugin 1.0
#
DISCID=7d113519
DTITLE=Big Joe Turner - Big Joe Turner:  All the Classic Hits, 1938-19
DTITLE=52 [JSP Records]
DYEAR=2003
DGENRE=Blues
TTITLE0=Goin' Away Blues
TTITLE1=Roll 'em Pete
TTITLE2=Cherry Red
TTITLE3=Baby, Look at You
TTITLE4=Lovin' Mama Blues
TTITLE5=Café Society Rag
TTITLE6=Piney Brown Blues
TTITLE7=Doggin' the Dog
TTITLE8=Careless Love
TTITLE9=Jumpin' Down Blues
TTITLE10=Rainy Day Blues
TTITLE11=Wee Baby Blues
TTITLE12=Last Goodbye Blues
TTITLE13=Lucille
TTITLE14=Rock Me Mama
TTITLE15=Corrine Corrina
TTITLE16=Lonesome Graveyard Blues
TTITLE17=Nobody in Mind
TTITLE18=Somebody's Got to Go
TTITLE19=Ice Man
TTITLE20=Chewed Up Glass
TTITLE21=Rocks in My Bed
TTITLE22=Blues on Central Avenue
TTITLE23=Goin' to Chicago
TTITLE24=Sun Risin' Blues
EXTD=
EXTT0=
EXTT1=
EXTT2=
EXTT3=
EXTT4=
EXTT5=
EXTT6=
EXTT7=
EXTT8=
EXTT9=
EXTT10=
EXTT11=
EXTT12=
EXTT13=
EXTT14=
EXTT15=
EXTT16=
EXTT17=
EXTT18=
EXTT19=
EXTT20=
EXTT21=
EXTT22=
EXTT23=
EXTT24=
PLAYORDER=
